{"title":"99.Homes.2015.BRRip.480p.x264.AAC-VYTO [P2PDL]","uid":13296853,"size":413633283,"categoryP":"video","categoryS":"movies","magnet":"?xt=urn:btih:7b8b832d4bda8aaff8597ab505fe9bfcaf669de7&amp;dn=99.Homes.2015.BRRip.480p.x264.AAC-VYTO+%5BP2PDL%5D&amp;tr=udp%3A%2F%2Ftracker.leechers-paradise.org%3A6969&amp;tr=udp%3A%2F%2Fzer0day.ch%3A1337&amp;tr=udp%3A%2F%2Fopen.demonii.com%3A1337&amp;tr=udp%3A%2F%2Ftracker.coppersurfer.tk%3A6969&amp;tr=udp%3A%2F%2Fexodus.desync.com%3A6969","seeders":1,"leechers":0,"uploader":"VYTOP2PDL","files":7,"time":1453647467,"description":"99.Homes.2015.BRRip.480p.x264.AAC-VYTO\r\n\r\n\r\nGenre: Drama     \nhttp://www.imdb.com/title/tt2891174/\r\n\r\n\r\n\r\nFormat                                   : MPEG-4\r\nFile size                                : 386 MiB\r\nDuration                                 : 1h 52mn\r\nOverall bit rate                         : 481 Kbps\r\n\r\nVideo\r\nFormat                                   : AVC\r\nBit rate                                 : 447 Kbps\r\nWidth                                    : 720 pixels\r\nHeight                                   : 304 pixels\r\nDisplay aspect ratio                     : 2.35:1\r\nFrame rate mode                          : Constant\r\nFrame rate                               : 23.976 fps\r\nBit depth                                : 8 bits\r\nStream size                              : 358 MiB (93%)\r\nWriting library                          : x264\r\n\r\nAudio\r\nFormat                                   : AAC\r\nBit rate mode                            : Variable\r\nBit rate                                 : 32.0 Kbps\r\nChannel(s)                               : 2 channels\r\nChannel positions                        : Front: L R\r\nSampling rate                            : 48.0 KHz\r\nStream size                              : 25.7 MiB (7%)\r\nLanguage                                 : English\r\n\r\nSubtitle                                 : Yes (English)\r\n\r\nScreen Shots: (Click to view)\r\n \nhttp://ititli.com/Oe \nhttp://ititli.com/Oj \nhttp://ititli.com/Ok \nhttp://ititli.com/Oo \nhttp://ititli.com/OG \nhttp://ititli.com/OH \nhttp://ititli.com/OM \nhttp://ititli.com/OU \nhttp://ititli.com/Oh \nhttp://ititli.com/Os \nhttp://ititli.com/OY \nhttp://ititli.com/O4\r\n\r\n----------------------------------------------------------------------------------------------------\r\n\r\n\r\nEncoder Notes: Looking For Early Access To Anything You Can Provide WEBDL, DVDScr, DVDR, BluRay,\r\nDirect Audio, Music Releases and Seedboxes. If You Got anything to offer please contact us.\r\n\r\nSupport us by donating BC - 1FgwdzPsd1y25Gea8wP1qni35uGCtmkRCD\r\n\r\nSend some love!\r\nFind us and join us!","torrent":{"xt":"urn:btih:7b8b832d4bda8aaff8597ab505fe9bfcaf669de7","amp;dn":"99.Homes.2015.BRRip.480p.x264.AAC-VYTO+%5BP2PDL%5D","amp;tr":["udp%3A%2F%2Ftracker.leechers-paradise.org%3A6969","udp%3A%2F%2Fzer0day.ch%3A1337","udp%3A%2F%2Fopen.demonii.com%3A1337","udp%3A%2F%2Ftracker.coppersurfer.tk%3A6969","udp%3A%2F%2Fexodus.desync.com%3A6969"],"infoHash":"7b8b832d4bda8aaff8597ab505fe9bfcaf669de7","infoHashBuffer":{"type":"Buffer","data":[123,139,131,45,75,218,138,175,248,89,122,181,5,254,155,252,175,102,157,231]},"announce":[],"urlList":[]}}